# xmcd
#
# Track frame offsets:
#	150
#	16478
#	41086
#	62826
#	98569
#	111447
#	124691
#	136017
#	152965
#	166036
#	197310
#	219846
#	240560
#	272923
#	286755
#	304805
#
# Disc length: 4499 seconds
#
# Revision: 2
# Processed by: cddbd v1.5.2PL0 Copyright (c) Steve Scherf et al.
# Submitted via: EZCDAudioConverter 2.1.7.1
#
DISCID=d5119110
DTITLE=V/A - I'm A Freak, Baby... 3/3
DYEAR=2016
DGENRE=
TTITLE0=The Gun - Race With The Devil
TTITLE1=Blonde On Blonde - Heart Without A Home
TTITLE2=Third World War - Ascension Day
TTITLE3=Egor - Street
TTITLE4=Sam Gopal - Escalator
TTITLE5=Uriah Heep - Gypsy
TTITLE6=Mickey Finn - Garden Of My Mind
TTITLE7=The Yardbirds - Think About It
TTITLE8=Morning After - Trying To Find My Way Back Home
TTITLE9=Velvett Fogg - Yellow Cave Woman
TTITLE10=Andromeda - Too Old
TTITLE11=Fleetwood Mac - The Green Manalishi (With The Two Prong Crown)
TTITLE12=Sweet Slag - Twisted Trip Woman
TTITLE13=The Kult - Occult
TTITLE14=The Taste - Born On The Wrong Side Of Time
TTITLE15=Fusion Farm - Hollis Brown
EXTD=
EXTT0=
EXTT1=
EXTT2=
EXTT3=
EXTT4=
EXTT5=
EXTT6=
EXTT7=
EXTT8=
EXTT9=
EXTT10=
EXTT11=
EXTT12=
EXTT13=
EXTT14=
EXTT15=
PLAYORDER=
